<?xml version="1.0" encoding="UTF-8" standalone="no"?>
<!-- Created with Inkscape (http://www.inkscape.org/) -->

<svg
   width="512"
   height="512"
   viewBox="0 0 512 512"
   version="1.1"
   id="svg5"
   xmlns="http://www.w3.org/2000/svg"
   xmlns:svg="http://www.w3.org/2000/svg">
  <defs
     id="defs2" />
  <g
     id="layer1">
    <path
       style="fill:#806600"
       id="path219"
       d="M 265.80435,498.08181 195.90218,377.07414 126,256.06646 l 139.74681,-0.0332 139.74681,-0.0332 -69.84463,121.0409 z"
       transform="matrix(0.91594219,0,0,1.0574938,10.591284,-14.718412)" />
    <path
       style="fill:#1a1a1a"
       id="path219-3"
       transform="matrix(0.91594219,0,0,-1.0574938,10.591284,526.71843)"
       d="M 265.80435,498.08181 195.90218,377.07414 126,256.06646 l 139.74681,-0.0332 139.74681,-0.0332 -69.84463,121.0409 z" />
    <path
       style="fill:#aa8800"
       id="path219-3-6"
       transform="matrix(0.45797109,0,0,-1.0574938,132.29564,526.71843)"
       d="M 265.80435,498.08181 195.90218,377.07414 126,256.06646 l 139.74681,-0.0332 139.74681,-0.0332 -69.84463,121.0409 z" />
    <path
       style="fill:#151414;fill-opacity:1"
       id="path219-3-6-7"
       transform="matrix(0.45797109,0,0,1.0574938,132.29564,-14.718427)"
       d="M 265.80435,498.08181 195.90218,377.07414 126,256.06646 l 139.74681,-0.0332 139.74681,-0.0332 -69.84463,121.0409 z" />
  </g>
</svg>
